<?xml version="1.0" standalone="no"?>
<!DOCTYPE svg PUBLIC "-//W3C//DTD SVG 20010904//EN"
 "http://www.w3.org/TR/2001/REC-SVG-20010904/DTD/svg10.dtd">
<svg version="1.0" xmlns="http://www.w3.org/2000/svg"
 width="1005.000000pt" height="1005.000000pt" viewBox="0 0 1005.000000 1005.000000"
 preserveAspectRatio="xMidYMid meet">
<metadata>
Created by potrace 1.14, written by Peter Selinger 2001-2017
</metadata>
<g transform="translate(0.000000,1005.000000) scale(0.100000,-0.100000)"
fill="#000000" stroke="none">
<path d="M1530 10033 c-85 -9 -258 -46 -343 -73 -126 -41 -352 -156 -467 -237
-122 -87 -306 -272 -392 -393 -118 -167 -211 -365 -263 -560 -58 -220 -55 0
-55 -3745 0 -3695 -2 -3532 50 -3735 86 -338 287 -661 544 -877 280 -236 589
-368 941 -403 79 -8 1088 -10 3560 -7 3757 4 3458 -1 3682 56 384 98 748 360
974 700 157 237 247 484 279 766 6 59 10 1284 10 3505 0 3662 2 3500 -49 3714
-96 402 -356 774 -709 1009 -190 127 -371 203 -622 260 l-95 21 -3505 2
c-1928 0 -3521 -1 -3540 -3z m1500 -945 c0 -56 -81 -1992 -84 -1995 -1 -2 -56
6 -122 17 -155 27 -387 36 -534 21 -522 -53 -918 -270 -1194 -655 l-56 -78 0
899 0 899 35 59 c241 399 864 701 1685 814 80 11 156 22 170 24 55 9 100 7
100 -5z m2900 -1008 l0 -1019 -887 -3 -888 -3 -70 -24 c-279 -93 -470 -291
-547 -567 -22 -79 -22 -84 -28 -1154 -7 -1202 -1 -1107 -80 -1278 -181 -387
-619 -706 -1118 -814 -92 -20 -132 -22 -759 -25 l-663 -4 0 1000 0 1000 833 4
c765 3 837 4 892 21 321 96 544 352 585 670 6 45 33 450 60 901 28 451 57 870
65 932 49 362 254 665 606 894 369 241 886 402 1494 464 199 20 218 21 373 23
l132 2 0 -1020z m329 -1322 c-1 -159 -74 -1906 -80 -1912 -3 -3 -39 1 -80 8
-383 73 -814 29 -1147 -118 -236 -103 -461 -287 -617 -504 l-60 -82 -3 890 -2
891 21 42 c108 212 380 432 720 583 265 118 614 211 979 263 188 26 199 28
238 30 l32 1 -1 -92z m2901 -928 l0 -1020 -857 0 c-819 0 -862 -1 -940 -20
-285 -68 -503 -278 -589 -565 -17 -55 -18 -142 -24 -1135 -6 -1069 -6 -1075
-28 -1154 -126 -450 -595 -838 -1169 -968 -95 -21 -120 -22 -760 -25 l-663 -4
0 1000 0 1001 794 0 c858 0 868 1 1010 54 252 95 456 342 496 603 6 37 35 464
65 948 31 484 62 919 70 966 68 404 353 743 821 977 343 172 845 301 1324 342
69 5 141 12 160 14 19 1 92 4 163 4 l127 2 0 -1020z"/>
</g>
</svg>
