<?xml version="1.0" standalone="no"?>
<!DOCTYPE svg PUBLIC "-//W3C//DTD SVG 20010904//EN"
 "http://www.w3.org/TR/2001/REC-SVG-20010904/DTD/svg10.dtd">
<svg version="1.0" xmlns="http://www.w3.org/2000/svg"
 width="209.000000pt" height="209.000000pt" viewBox="0 0 209.000000 209.000000"
 preserveAspectRatio="xMidYMid meet">
<metadata>
Created by potrace 1.14, written by Peter Selinger 2001-2017
</metadata>
<g transform="translate(0.000000,209.000000) scale(0.100000,-0.100000)"
fill="#000000" stroke="none">
<path d="M428 2078 c-208 -20 -361 -150 -412 -350 -10 -41 -13 -187 -11 -703
l1 -650 23 -60 c43 -110 128 -208 223 -256 99 -50 119 -52 793 -52 567 0 637
2 690 18 167 48 282 166 333 345 3 8 6 303 7 655 2 513 -1 652 -12 699 -29
124 -116 242 -222 299 -105 58 -122 59 -761 61 -322 0 -615 -2 -652 -6z"/>
</g>
</svg>
